<svg xmlns="http://www.w3.org/2000/svg" width="1240" height="1240"><path d="M839 72.813c-4.591.901-5.258 4.133-1.377 6.676C842.835 82.903 858 95.223 858 96.042c0 1.432-8.239 7.608-15.329 11.489-18.008 9.86-37.082 9.979-71.171.445-40.277-11.264-76.251-10.396-110.5 2.664-17.539 6.689-39.32 18.983-56.591 31.943-16.939 12.712-33.612 31.943-41.845 48.266-1.484 2.943-2.917 5.131-3.185 4.864-.456-.456 1.523-12.013 3.665-21.406 1.357-5.951 1.201-7.307-.839-7.307-2.671 0-12.81 13.803-17.065 23.233-6.139 13.606-9.14 30.279-9.14 50.78v14.77l-2.645.664c-1.454.365-3.031.277-3.504-.196-.879-.879-3.47-18.124-7.002-46.604-1.784-14.386-4.075-14.12-11.668 1.353l-3.681 7.5-.344 15.495c-.19 8.523.168 20.39.794 26.372.626 5.983.857 11.159.513 11.503-.344.345-1.602-.713-2.795-2.351-1.192-1.637-5.58-7.036-9.751-11.998-4.17-4.962-8.138-10.061-8.817-11.332-1.737-3.25-5.668-2.662-5.424.811.097 1.375.675 8.296 1.285 15.381.611 7.085.9 13.091.644 13.347-.257.257-3.535-.234-7.286-1.091-5.661-1.293-7.045-1.332-8.148-.233-1.104 1.101-.344 2.512 4.5 8.35C489.707 303.286 495 309.932 495 310.79c0 .902-10.971 16.544-17.114 24.401-2.744 3.511-3.864 7.809-2.034 7.809.469 0 5.709-2.035 11.645-4.522s11.049-4.265 11.363-3.952c.313.314.034 1.336-.621 2.272-3.953 5.652-11.027 19.796-13.523 27.039-9.136 26.504-7.156 51.179 6.423 80.065 2.74 5.829 6.405 12.848 8.143 15.598 6.949 10.994 25.531 37.435 31.272 44.5 3.352 4.125 7.651 9.75 9.553 12.5 6.36 9.197 15.893 26.266 15.893 28.457 0 .711-51.071 1.117-162.25 1.29-161.499.252-162.25.262-162.25 2.253s.749 2.001 163 2.247c151.842.231 163.086.364 164.25 1.942 1.831 2.48 1.527 4.311-.715 4.311-3.345 0-4.349 3.524-3.607 12.666.695 8.562-.125 10.511-2.348 5.584-.682-1.513-3.307-6.26-5.832-10.55-4.278-7.267-4.801-7.78-7.635-7.5-4.001.395-4.319 2.255-3.644 21.3.527 14.875.551 15.003 2.918 15.337 1.313.186 2.768-.264 3.235-1 .466-.735.881-5.837.921-11.337.052-6.949.376-9.542 1.062-8.5.543.825 3.329 5.775 6.191 11 3.961 7.231 5.755 9.578 7.509 9.827 4.323.613 5.368-1.461 5.173-10.264-.303-13.695-.033-19.022.912-18.013 1.531 1.635 6.682 30.715 5.717 32.277-.33.535-66.402.931-161.333.967-88.426.034-164.262.094-168.524.134-6.912.064-7.75.277-7.75 1.965 0 1.041.695 2.16 1.545 2.486.85.326 76.713.596 168.585.6 91.872.005 167.452.263 167.955.574.503.311.929 1.776.947 3.256.043 3.607 5.108 13.691 6.876 13.691.889 0 2.582-3.504 4.59-9.5 3.931-11.739 6.883-18.736 15.185-36 5.799-12.058 11.153-23.777 14.848-32.5 5.112-12.07 8.612-26.836 9.124-38.5.254-5.775.655-11.4.891-12.5.236-1.1 3.395-4.475 7.021-7.5 3.625-3.025 7.284-6.819 8.132-8.432 2.258-4.298 28.733-30.93 36.301-36.517 8.008-5.912 10.821-7.36 20.339-10.467 7.535-2.46 14.42-3.225 49.751-5.531 8.025-.524 16.459-1.596 18.742-2.383 5.361-1.847 18.206-9.604 18.9-11.415.3-.78-1.068-3.039-3.098-5.118-1.999-2.047-3.634-4.07-3.634-4.497 0-.788 2.885-.197 6.5 1.332 1.1.465 6.725 2.268 12.5 4.006 5.775 1.738 11.625 3.548 13 4.023 1.375.475 8.35 2.704 15.5 4.954 7.15 2.249 16.669 5.27 21.153 6.712 4.484 1.442 8.903 2.334 9.82 1.982 2.803-1.076 1.421-4.949-2.473-6.926-4.972-2.525-24.946-11.723-25.456-11.723-1.605 0-17.544-8.151-17.544-8.973 0-.565.303-1.027.674-1.027.71 0 17.263 5.125 41.139 12.738 13.37 4.264 14.423 4.454 15.983 2.894 2.647-2.647.683-4.46-12.737-11.758-6.735-3.663-12.692-7.107-13.239-7.654-1.994-1.994 1-2.175 6.313-.381 9.431 3.184 31.759 8.602 32.48 7.881.383-.383.143-4.189-.533-8.458-3.423-21.626-3.39-20.721-1.143-30.936 3.163-14.383 10.055-30.456 14.781-34.473 5.689-4.834 22.404-6.863 26.442-3.209 4.982 4.509 25.371 34.695 32.272 47.78 6.823 12.938 13.941 36.554 12.304 40.822-.319.83-4.552 4.179-9.408 7.442-30.867 20.743-52.328 35.503-52.851 36.349-1.019 1.649.509 4.824 2.648 5.503 1.814.575 3.743.103 10.375-2.539 2.358-.939 15.953-6.037 22.796-8.548 3.397-1.247 5.108-1.449 5.863-.694.587.587.78 1.531.429 2.099-.716 1.158-29.215 21.143-37.338 26.183-3.767 2.338-5.25 3.882-5.25 5.468 0 1.959.765 2.327 6.75 3.244 3.712.569 12.298 2.017 19.079 3.217 6.781 1.201 12.9 1.964 13.598 1.696.698-.267 5.05-7.263 9.671-15.545 4.621-8.282 8.775-14.948 9.23-14.813.455.134 6.898 12.157 14.317 26.718 7.419 14.561 17.035 33.328 21.368 41.706 7.045 13.619 7.719 15.393 6.362 16.75-.835.835-1.909 1.518-2.387 1.518s-4.609 1.755-9.179 3.901c-10.879 5.107-36.836 12.652-39.112 11.369-.441-.25-.752-5.25-.691-11.112.145-13.891.234-13.158-1.602-13.158-4.826 0-13.41 10.189-13.395 15.9.014 5.328 4.914 12.994 12.945 20.25 3.864 3.493 7.031 6.884 7.036 7.537.006.653-3.14 9.699-6.99 20.103-3.85 10.405-7 19.433-7 20.064 0 2.85-5.414.821-26.755-10.027-7.291-3.705-16.501-8.836-20.467-11.402-24.996-16.17-45.279-36.856-56.902-58.033-2.176-3.965-4.617-7.462-5.424-7.772-.807-.31-6.527.066-12.71.836-6.183.769-16.549 1.957-23.036 2.639-6.487.682-12.106 1.727-12.487 2.322-.381.596-.547 6.483-.371 13.083.177 6.6-.165 18.525-.759 26.5-3.004 40.281-11.75 64.31-32.312 88.765-10.042 11.944-11.126 14.411-11.084 25.235.035 9.232 1.601 14.365 9.287 30.447 11.257 23.553 32.363 47.55 63.122 71.767 21.2 16.691 26.447 18.933 62.74 26.81 15.863 3.443 23.685 6.371 32.624 12.213 3.281 2.145 7.125 4.131 8.542 4.415 2.309.461 12.3-1.736 27.992-6.157 3.025-.852 9.543-2.44 14.484-3.529 23.423-5.161 36.147-14.281 44.357-31.793 2.434-5.194 2.659-6.729 2.659-18.173 0-17.667-1.853-23.432-18.502-57.554-5.499-11.269-9.998-20.679-9.998-20.909 0-.23-1.722-4.158-3.827-8.728-7.121-15.464-7.742-22.329-2.706-29.938 1.45-2.192 4.751-5.417 7.335-7.167 12.243-8.29 20.819-21.005 23.217-34.423 1.773-9.92.564-16.234-7.469-39.012-1.402-3.977-2.55-7.626-2.55-8.109 0-.482 2.587-2.582 5.75-4.667 13.001-8.57 19.25-15.635 19.25-21.764 0-3.248-4.01-13.173-9.073-22.452L997.231 512c-1.349-2.475-4.155-7.425-6.236-11-5.601-9.625-13.622-24.489-17.807-33-3.573-7.265-3.688-7.844-3.688-18.5 0-6.05.62-17.975 1.379-26.5 2.64-29.689.832-37.413-17.431-74.445-4.217-8.549-7.449-16.111-7.183-16.803.266-.693 2.227-1.862 4.359-2.599 6.03-2.084 21.1-10.927 29.376-17.237 26.676-20.342 45.583-48.157 54.323-79.916 4.13-15.004 5.07-22.444 4.994-39.5-.08-17.698-1.361-26.595-6.252-43.394-3.005-10.324-10.967-26.434-18.731-37.902-6.68-9.866-8.115-11.458-9.536-10.579-1.366.844-.896 3.651 1.654 9.875 3.823 9.336 8.253 24.759 11.199 39 2.392 11.556 2.697 15.277 2.749 33.5.06 20.836-.828 28.281-5.072 42.5-3.542 11.864-14.925 37.515-17.301 38.983-1.286.795-1.288-1.358-.008-8.983 1.729-10.294 3.976-34.629 3.979-43.076.005-17.626-3.422-40.785-8.108-54.794-1.128-3.371-3.874-9.567-6.104-13.769-4.764-8.978-17.187-23.861-19.917-23.861-1.028 0-1.869.264-1.869.586 0 .322 2.677 8.76 5.948 18.75 14.826 45.272 16.789 76.002 6.505 101.823-3.844 9.653-8.807 18.084-12.608 21.423-1.692 1.486-2.056 1.564-1.615.347 6.724-18.547 9.77-36.267 9.77-56.831 0-13.365-.362-17.07-2.484-25.436-2.686-10.587-3.695-13.253-9.323-24.621-10.494-21.195-37.672-50.819-61.193-66.699-7.641-5.159-19.275-10.983-27.572-13.803-6.348-2.157-10.221-2.765-19.428-3.053-6.325-.197-13.075-.05-15 .327M890.171 134c9.506 15.372 12.157 20.355 17.293 32.5 11.374 26.897 13.719 63.106 6.089 94-1.858 7.522-1.889 8.438-.208 5.973 5.546-8.133 11.684-35.5 11.638-51.882-.045-15.602-5.597-37.23-13.244-51.591-4.866-9.138-15.322-24.279-19.338-28-3.017-2.796-3.465-2.997-2.23-1M617.5 158.115c-6.43 4.788-18.48 16.892-23.281 23.385-7.648 10.343-12.558 21.333-16.756 37.5-3.187 12.276-1.573 48.832 2.461 55.758.726 1.246 1.024-1.836 1.046-10.834.092-38.342 12.824-74.657 35.47-101.174 3.641-4.262 6.268-7.719 5.84-7.682-.429.038-2.58 1.409-4.78 3.047m154.292 2.588c-6.091 8.474-26.323 39.437-33.52 51.297C729.908 225.785 720 242.74 720 243.269c0 .21-2.756 5.297-6.123 11.306-3.368 6.009-6.781 12.5-7.585 14.425-1.458 3.493-1.457 3.496.522 1.5 5.296-5.341 32.119-44.579 43.354-63.42 8.109-13.599 26.443-49.802 25.632-50.614-.309-.308-2.112 1.599-4.008 4.237m-117.104 5.299c-19.377 17.709-30.786 44.757-34.679 82.209-2.073 19.946-.565 22.366 2.985 4.789 6.127-30.335 19.064-63.079 33.133-83.861 2.741-4.049 4.79-7.555 4.554-7.791-.236-.237-2.933 1.858-5.993 4.654m207.243 4.677c6.056 14.231 7.483 21.401 7.528 37.821.042 15.532-.408 18.352-5.191 32.5-2.917 8.63-6.786 16.645-11.874 24.598-1.959 3.062-3.338 5.791-3.065 6.064.796.796 11.314-12.451 15.861-19.976 2.292-3.795 5.742-11.014 7.666-16.043 3.379-8.835 3.499-9.615 3.549-23.143.061-16.297-1.342-21.949-9.105-36.673-6.204-11.766-9.55-14.974-5.369-5.148M700.242 178.3c-2.799 2.669-16.124 18.611-20.623 24.672-10.117 13.63-19.38 31.761-24.612 48.171-2.78 8.722-4.906 20.002-3.519 18.673.393-.377 2.856-6.002 5.474-12.5 8.086-20.073 22.584-46.098 38.754-69.566 6.601-9.581 8.231-12.984 4.526-9.45m109.996 6.45c-1.105 2.613-2.345 5.875-2.755 7.25-1.255 4.203-8.411 18.005-14.259 27.5-8.365 13.582-22.229 31.439-33.464 43.104-5.529 5.74-9.783 10.706-9.453 11.036.329.33 2.983-1.113 5.896-3.206 29.138-20.932 47.045-46.31 54.21-76.828 1.547-6.591 2.654-13.606 2.147-13.606-.172 0-1.218 2.137-2.322 4.75M761.5 300.009c-39.324 1.464-98.513 5.333-123 8.04-15.492 1.712-39.418 6.209-42.436 7.975-1.318.771-1.249.919.436.94 1.1.013 4.619-.405 7.821-.929 5.446-.892 28.9-3.499 54.179-6.023 36.516-3.645 117.301-7.246 150-6.686 28.076.481 36.026 1.302 50.888 5.254 12.436 3.308 13.331 3.458 11.215 1.89-3.303-2.448-16.574-7.567-23.465-9.051-8.52-1.836-54.073-2.585-85.638-1.41M566 326.332c-4.793 2.244-15.986 8.837-16.55 9.749-.947 1.532.381 1.051 4.8-1.739 2.316-1.462 7.096-4.162 10.622-6 5.927-3.089 6.815-4.671 1.128-2.01m-295 37.227c-1.375.24-6.55.935-11.5 1.546s-9.562 1.568-10.25 2.126c-.982.796-1.25 18.89-1.25 84.356 0 81.375.046 83.367 1.934 84.378 2.971 1.59 23.567 1.341 24.93-.301.753-.908 1.194-12.387 1.373-35.75l.263-34.414 12 .022c10.384.02 12.555.317 16.124 2.207 8.825 4.672 10.859 9.156 19.146 42.211 4.282 17.078 6.201 23.107 7.898 24.81 2.066 2.075 3.143 2.25 13.818 2.25 9.642 0 11.678-.265 12.185-1.585.615-1.603-.373-6.788-3.889-20.415a7784.388 7784.388 0 01-5.773-22.609c-5.306-20.889-8.988-27.58-19.901-36.159l-2.392-1.881 5.433-3.066c8.584-4.844 16.042-13.636 19.468-22.948 2.502-6.8 2.881-9.226 2.871-18.337-.013-11.775-1.364-16.781-6.83-25.313-9.34-14.578-24.614-20.273-56.658-21.125-9.075-.241-17.625-.243-19-.003m149.345 3.037c-.935 1.428-2.72 6.04-3.965 10.25-6.398 21.62-16.685 55.375-28.085 92.154-4.688 15.125-9.577 31.1-10.863 35.5a1041.33 1041.33 0 01-5.012 16.5c-4.029 12.815-4.167 14.774-1.096 15.545 1.393.35 7.532.483 13.642.295 8.192-.251 11.339-.71 11.979-1.749.478-.774 2.091-5.724 3.585-11 1.494-5.275 4.586-15.666 6.873-23.091l4.157-13.5h49.864l1.674 5c.92 2.75 3.039 9.5 4.709 15 9.683 31.905 7.712 29.5 24.179 29.5 10.235 0 12.172-.248 12.702-1.628.668-1.743-.648-7.626-4.225-18.872-1.224-3.85-3.655-11.725-5.402-17.5-1.747-5.775-3.563-11.625-4.036-13-.719-2.093-4.235-13.628-8.076-26.5-.492-1.65-2.688-8.85-4.879-16-2.191-7.15-6.297-20.65-9.125-30-2.828-9.35-6.897-22.57-9.043-29.377-2.146-6.808-3.902-12.935-3.902-13.616 0-.68-.933-2.423-2.073-3.872L451.855 364H422.046l-1.701 2.596m204.324 1.151l-10.831.322-3.79 8.216c-3.545 7.683-8.918 19.586-14.091 31.215a1829.4 1829.4 0 01-4.49 10 9837.552 9837.552 0 00-7.43 16.48c-4.995 11.105-6.751 13.719-8.217 12.228-.382-.389-3.6-7.458-7.149-15.708s-8.684-19.95-11.411-26c-2.727-6.05-7.122-15.95-9.767-22-2.646-6.05-5.484-11.788-6.307-12.75-1.262-1.476-3.273-1.75-12.841-1.75-6.24 0-11.345.245-11.345.544 0 .3 10.8 21.898 24 47.997l24 47.453v69.074l10.75-.284 10.75-.284.5-35.598c.334-23.764.868-36.064 1.606-37 .608-.771 3.929-6.802 7.38-13.402s7.507-14.25 9.013-17c1.506-2.75 4.305-7.925 6.219-11.5l7.631-14.25c2.283-4.262 6.013-11.238 8.288-15.5 2.275-4.262 5.648-10.49 7.495-13.838 2.922-5.296 3.452-7.928 1.451-7.2-.32.117-5.457.358-11.414.535m-341.647 18.944c-3.013.236-5.819.965-6.235 1.619-.416.655-.763 13.242-.772 27.971-.012 21.982.235 26.878 1.378 27.316.766.294 7.465-.132 14.885-.947 20.31-2.232 27.676-6.566 31.448-18.502 1.947-6.161 1.877-17.645-.137-22.361-2.377-5.569-7.01-10.293-12.332-12.573-5.041-2.16-18.041-3.322-28.235-2.523m151.984 11.059c.005 1.654-3.824 15.627-11.716 42.75-3.563 12.246-6.29 22.239-6.29 23.049 0 .248 8.609.451 19.132.451h19.131l-.605-3.75c-.333-2.062-1.263-6-2.065-8.75-1.582-5.42-7.973-27.749-8.874-31-.305-1.1-1.452-5.15-2.551-9a787.402 787.402 0 01-3.121-11.25c-1.12-4.236-3.052-5.824-3.041-2.5M695.5 487.061c-9.86 4.988-15.05 11.048-19.647 22.939-.923 2.388-1.339 8.108-1.31 18 .039 12.821.317 15.195 2.407 20.5 3.28 8.329 5.87 12.124 12.672 18.571 7.031 6.664 10.92 9.33 12.334 8.456 1.991-1.23 1.01-3.341-5.652-12.162-8.84-11.703-11.702-19.881-12.93-36.938-.518-7.209-.3-10.133 1.063-14.237 4.248-12.791 19.473-17.127 28.486-8.113 4.071 4.071 5.189 8.791 4.221 17.822-.852 7.943-1.98 9.553-10.233 14.601-7.277 4.451-3.88 6.513 12.239 7.43 13.531.77 14.037 1.045 19.805 10.764 5.459 9.197 8.976 13.306 11.389 13.306 2.219 0 7.656-4.295 7.656-6.047 0-.531-3.463-6.251-7.696-12.71-10.104-15.419-13.043-21.316-14.758-29.613-1.205-5.829-2.709-8.785-9.918-19.5-5.402-8.029-9.644-13.268-11.644-14.38-4.852-2.699-11.488-2.229-18.484 1.311m-457.803 70.576c-.383.383-.697 1.738-.697 3.011 0 2.27.821 2.721 6.5 3.575 1.867.28 2.033 1.264 2.5 14.789l.5 14.488 2.756.317c1.723.198 2.965-.23 3.315-1.142.308-.802.643-7.464.744-14.803.173-12.505.311-13.364 2.185-13.647 6.147-.93 6.633-1.239 6.313-4.01l-.313-2.715-11.553-.28c-6.355-.154-11.867.033-12.25.417m26.786 1.613c-.305 1.237-.426 9.45-.269 18.25l.286 16 2.75.316c2.232.257 2.951-.213 3.823-2.5.59-1.549.799-4.659.462-6.912-.845-5.664.574-6.431 10.215-5.522.855.081 1.25 2.108 1.25 6.418 0 6.771 1.038 8.7 4.681 8.7 3.147 0 3.44-1.881 3.105-19.892-.249-13.381-.515-15.537-2.036-16.495-3.288-2.071-5.216.404-5.544 7.116l-.295 6.021-4.705.534c-2.589.294-5.222.108-5.853-.412-.631-.52-1.177-3.42-1.213-6.444-.078-6.56-.508-7.428-3.68-7.428-1.681 0-2.592.689-2.977 2.25m31.492.315c-1.303 3.427-1.253 30.046.06 32.501.904 1.688 2.159 1.934 9.878 1.934 9.503 0 11.832-1.076 10.617-4.906-.531-1.671-1.657-2.05-6.833-2.298l-6.197-.296-.31-3.75-.311-3.75h4.37c5.088 0 8.122-1.822 7.601-4.566-.295-1.554-1.446-2.032-5.859-2.434l-5.491-.5-.307-3.698-.308-3.699 5.704-.301c6.002-.318 8.316-2.001 7.102-5.166-.518-1.348-2.223-1.636-9.684-1.636-8.801 0-9.084.072-10.032 2.565m41.353-.624c-1.744 1.064-4.331 3.642-5.75 5.729-2.17 3.193-2.578 4.913-2.578 10.862 0 5.95.419 7.714 2.65 11.154 1.457 2.247 4.172 4.813 6.034 5.7 4.588 2.188 13.094 2.125 15.569-.115 1.811-1.639 1.961-1.639 2.879 0 .532.951 2.08 1.729 3.439 1.729 2.545 0 3.692-1.712 4.892-7.303.568-2.646.866-2.787 5.293-2.5 4.58.296 4.727.409 6.243 4.803 1.272 3.685 2.048 4.557 4.283 4.817 3.69.428 4.328-1.704 2.428-8.115-5.403-18.237-8.047-26.357-8.938-27.452-.559-.687-2.257-1.25-3.772-1.25-4.194 0-3.702-1.044-11.461 24.308-2.378 7.77-2.881 8.653-4.27 7.5-.867-.72-3.969-1.339-6.894-1.377-6.257-.082-8.844-1.927-10.513-7.497-1.554-5.187-.302-10.648 3.257-14.207 2.739-2.739 3.357-2.921 7.877-2.322 4.115.546 5.059.36 5.869-1.153.62-1.159.62-2.42.001-3.528-1.422-2.54-12.248-2.398-16.538.217m51.337-.685c-1.522 1.113-1.686 3.112-1.441 17.642.241 14.335.495 16.525 2.026 17.489 3.292 2.074 5.196-.406 5.75-7.489.431-5.52.769-6.398 2.462-6.398 2.169 0 3.786 2.673 5.746 9.5 1.086 3.782 1.732 4.551 4.048 4.817 1.818.209 2.964-.228 3.37-1.285.733-1.911-1.308-10.081-3.339-13.367-1.265-2.045-1.257-2.541.065-4.001 4.748-5.247 3.936-12.587-1.784-16.122-3.829-2.366-14.089-2.844-16.903-.786m26.714-.061c-.875 1.417-.758 33.383.128 34.817.972 1.573 5.219 1.144 5.886-.594.334-.87.607-8.483.607-16.918 0-8.435-.273-16.048-.607-16.918-.71-1.852-4.94-2.124-6.014-.387m12.621-.218c-1.201.757-1.565 3.973-1.824 16.121-.445 20.847-.846 19.902 8.439 19.902 5.281 0 8.433-.506 10.402-1.669 5.575-3.293 6.962-10.163 3.106-15.379-2.037-2.755-2.089-3.162-.667-5.193 3.11-4.44 1.203-10.744-3.996-13.211-3.597-1.707-13.103-2.058-15.46-.571m27.75.103c-1.557.907-1.75 2.879-1.75 17.911 0 11.068.374 17.122 1.085 17.562.597.369 3.977.654 7.511.634 7.937-.046 12.729-2.61 14.413-7.714 1.293-3.918.624-7.029-2.17-10.087-1.911-2.09-1.909-2.153.118-5.589 1.723-2.919 1.876-3.978.959-6.609-1.571-4.506-6.467-7.195-13.034-7.158-2.96.017-6.17.489-7.132 1.05m25.693.207c-.271.707-.369 8.92-.218 18.25l.275 16.963 9.142.286c7.102.222 9.48-.051 10.651-1.222 1.327-1.326 1.656-1.331 2.73-.036 1.493 1.799 4.569 1.92 5.668.222.445-.687 1.273-2.825 1.841-4.75.998-3.384 1.195-3.5 5.936-3.5 4.767 0 4.93.099 5.809 3.5.497 1.925 1.368 4.063 1.936 4.75 1.394 1.689 5.72 1.588 6.387-.149.496-1.293-2.711-12.841-7.942-28.601-2.096-6.313-2.264-6.509-5.843-6.806-4.535-.378-4.274-.86-9.795 18.056-2.368 8.112-4.636 14.75-5.04 14.75-.404 0-1.295-.675-1.98-1.5-.818-.986-3.05-1.5-6.513-1.5h-5.268l-.413-3.54c-.501-4.286.901-5.669 4.929-4.863 3.278.656 7.274-.933 7.25-2.882-.036-2.819-1.934-3.994-6.629-4.103-4.854-.112-4.856-.114-5.163-3.81l-.308-3.699 5.704-.301c6.38-.338 8.868-2.341 6.481-5.218-1.721-2.074-18.845-2.333-19.627-.297m-85.776 5.38c-1.076 1.075-.765 8.155.39 8.868 2.073 1.281 5.903-.527 6.546-3.091 1.002-3.989-4.305-8.409-6.936-5.777m39 0c-1.324 1.323-.684 7.389.841 7.974 1.882.722 6.492-2.195 6.492-4.107 0-2.584-5.641-5.559-7.333-3.867m27.509.203c-2.014 1.277-1.112 7.531 1.148 7.959 2.036.386 5.676-2.444 5.676-4.413 0-1.607-2.763-4.421-4.321-4.401-.649.009-1.775.393-2.503.855m54.408 6.197c-1.452 3.463-1.115 7.348.669 7.718 2.496.517 3.095-1.968 1.424-5.903-1.078-2.539-1.6-2.991-2.093-1.815M368.48 571.25c-1.27 3.476-.908 6.183.876 6.553 2.893.599 3.757-1.043 2.417-4.595-1.263-3.346-2.514-4.089-3.293-1.958m65.918 8.155c-.296.772-.395 2.91-.218 4.75.251 2.626.821 3.416 2.652 3.675 2.685.381 6.168-2.348 6.168-4.83 0-3.821-7.338-6.888-8.602-3.595m27 0c-.296.772-.395 2.91-.218 4.75.356 3.725 3.044 4.866 6.768 2.873 2.721-1.456 2.796-6.56.118-7.993-2.739-1.465-6.034-1.283-6.668.37M690 586.835c0 2.121 12.547 13.177 23.644 20.836 17.547 12.11 32.422 13.626 40.982 4.176 5.6-6.181 10.277-16.847 7.388-16.847-.68 0-3.324 1.709-5.875 3.797-8.343 6.829-15.991 8.913-24.535 6.688-6.187-1.612-8.964-3.019-19.218-9.742-8.968-5.88-18.297-10.743-20.608-10.743-1.058 0-1.778.743-1.778 1.835m-385.958 30.614c-1.848 2.227-1.038 3.347 21.208 29.317 4.981 5.815 5.606 8.071 3.404 12.289-3.17 6.076-4.654 12.612-4.654 20.507 0 7.566.31 8.826 3.973 16.144 4.776 9.542 13.169 18.066 21.746 22.085 5.141 2.409 6.999 2.717 16.781 2.783 6.709.045 11.898.557 13.303 1.313 1.267.682 3.742 3.585 5.5 6.451 1.758 2.866 3.755 6.1 4.437 7.186.681 1.087 2.18 3.718 3.331 5.846 1.151 2.129 6.099 10.563 10.997 18.744 13.485 22.523 15.156 25.909 14.506 29.386-.839 4.484-5.519 25.213-7.112 31.5-1.295 5.11-4.693 19.895-6.436 28-1.547 7.193-8.215 36.873-10.56 47-1.337 5.775-2.876 12.525-3.419 15-.544 2.475-2.158 9.45-3.588 15.5-1.43 6.05-2.964 12.8-3.41 15-.735 3.626-3.436 15.555-10.642 47-1.386 6.05-2.91 12.8-3.385 15a753.67 753.67 0 01-2.397 10.5c-1.728 7.332-5.998 26.962-8.157 37.5-2.649 12.928-3.4 17.928-4.959 33-2.151 20.81-4.365 40.527-5.613 50-.579 4.4-1.131 10.025-1.225 12.5-.147 3.862.107 4.5 1.791 4.5 2.397 0 3.12-1.418 9.435-18.5 10.608-28.692 20.23-57.176 30.404-90 9.236-29.799 11.63-37.742 14.167-47 1.432-5.225 3.004-10.625 3.494-12 .489-1.375 1.802-5.65 2.918-9.5 1.116-3.85 5.221-18.025 9.121-31.5 3.901-13.475 8.922-30.575 11.158-38 2.236-7.425 4.371-14.85 4.744-16.5.827-3.653 2.166-3.863 3.196-.5.421 1.375 2.633 8.575 4.914 16l5.07 16.5c.507 1.65 2.197 7.05 3.757 12 1.559 4.95 4.017 12.825 5.462 17.5 13.885 44.939 16.067 51.83 28.494 90 5.461 16.775 12.515 37.025 15.674 45 3.159 7.975 9.995 25.3 15.19 38.5s9.863 25.013 10.372 26.25c1.292 3.141 4.755 2.949 5.572-.309.353-1.407-.292-8.945-1.435-16.75-1.142-7.805-2.8-19.816-3.684-26.691-.885-6.875-2-14.525-2.479-17-.479-2.475-1.606-8.775-2.505-14-.899-5.225-2.266-12.2-3.039-15.5-.773-3.3-2.34-10.05-3.481-15-4.028-17.46-4.934-21.249-11.361-47.5-3.567-14.575-7.365-30.1-8.438-34.5-2.154-8.829-7.933-31.752-11.723-46.5C477.002 886.986 453 789.115 453 787.72c0-.903 3.15-8.234 7-16.29 3.85-8.057 7-14.784 7-14.95 0-.166 3.567-7.738 7.927-16.827 9.282-19.352 9.616-19.653 21.829-19.653C521.063 720 540 701.258 540 677.203c0-12.609-4.353-22.672-13.371-30.908-16.753-15.299-40.525-15.702-57.261-.97-9.468 8.334-14.377 19.096-14.353 31.463.023 11.724 3.251 19.941 11.467 29.192 3.913 4.405 4.388 5.431 3.838 8.274-1.585 8.181-2.459 9.738-23.86 42.488-5.478 8.383-10.502 15.246-11.165 15.25-.663.004-5.838-6.345-11.5-14.11a6067.724 6067.724 0 00-16.666-22.75c-7.41-10.039-11.105-17.308-11.119-21.873-.007-2.158 1.128-4.733 3.394-7.702 1.873-2.453 4.684-7.069 6.247-10.258 2.602-5.307 2.843-6.737 2.846-16.846.003-10.763-.094-11.242-3.771-18.687-6.603-13.369-18.998-22.112-34.277-24.178-5.705-.772-14.452.853-21.41 3.975l-5.936 2.664-3.801-2.296c-2.091-1.263-5.827-3.923-8.302-5.912-6.112-4.913-22.973-17.071-24.469-17.646-.666-.255-1.786.229-2.489 1.076m55.692 32.581c-13.838 3.475-21.69 13.601-21.69 27.97 0 15.095 7.403 24.729 21.889 28.483 14.376 3.725 28.695-3.944 34.111-18.271 2.423-6.41 2.251-15.176-.423-21.577-2.115-5.062-8.994-12.12-14.195-14.565-5.216-2.452-14.304-3.394-19.692-2.04m126.266.648c-6.075 2.629-11.717 8.044-14.669 14.077-2.354 4.812-2.791 6.94-2.72 13.239.05 4.507.713 8.905 1.658 11.006 2.491 5.539 8.509 11.846 14.093 14.771 4.33 2.267 6.396 2.691 13.138 2.692 8.942.003 13.533-1.787 20.328-7.927 6.093-5.505 8.685-11.695 8.598-20.536-.122-12.357-5.152-20.708-15.622-25.94-5.292-2.645-7.154-3.049-13.714-2.978-4.395.047-9.063.719-11.09 1.596m-56.633 179.24c-3.365 2.052-6.367 5.731-6.367 7.805 0 .973 3.212 1.277 13.5 1.277 9.119 0 13.5-.356 13.5-1.096 0-1.988-4.107-6.908-7.029-8.419-3.949-2.042-9.853-1.854-13.604.433M423 847.035c0 1.979 3.227 5.942 6.472 7.947 3.856 2.384 9.49 2.606 13.499.533 2.922-1.511 7.029-6.431 7.029-8.419 0-.74-4.381-1.096-13.5-1.096-8.639 0-13.5.373-13.5 1.035M239.338 848.5c-1.127.831-1.312 16.433-1.097 92.5l.259 91.5 27.5.316c40.141.461 53.602-1.598 68-10.4 6.599-4.034 8.987-6.491 13.348-13.734 4.914-8.159 6.954-18.211 6.476-31.899-.358-10.235-.694-11.901-3.615-17.938-3.774-7.8-11.005-14.916-19.523-19.214-3.127-1.578-5.683-3.153-5.678-3.5.004-.347 1.891-1.707 4.194-3.023 12.131-6.93 18.679-17.492 19.529-31.499 1.693-27.921-15.04-48.988-41.731-52.541-11.001-1.464-65.823-1.924-67.662-.568m292.21.423c-.314.508-.578 41.761-.586 91.675-.011 71.954.247 90.913 1.247 91.531 1.682 1.04 20.822.77 23.029-.325 1.599-.792 1.759-3.933 2-39.083l.262-38.221 11.858-.283c8.527-.203 12.297.078 13.421 1 .86.706 6.695 11.858 12.967 24.783 20.616 42.483 24.673 50.486 26.223 51.718 2.375 1.889 24.918 1.739 25.651-.171.307-.798-8.068-18.904-18.609-40.234-10.542-21.33-19.245-39.198-19.339-39.706-.178-.957 2.185-2.388 8.536-5.171 5.841-2.558 16.051-12.568 19.587-19.203 6.035-11.323 7.61-24.517 4.641-38.89-4.802-23.246-19.379-35.765-45.758-39.296-9.704-1.299-64.34-1.403-65.13-.124m136.089.581c-.351.913-.637 42.068-.637 91.455 0 78.227.191 89.955 1.486 91.03 2.386 1.98 63.65.759 73.457-1.464 22.321-5.061 32.944-13.919 38.704-32.276 2.369-7.55 2.55-9.335 2.124-21-.373-10.215-.897-13.717-2.634-17.618-2.788-6.262-11.95-15.205-19.914-19.44-3.423-1.819-6.223-3.62-6.223-4.001 0-.382 1.913-1.711 4.25-2.956 9.305-4.952 15.505-12.931 18.104-23.298 5.695-22.712-3.879-46.037-22.854-55.682-10.48-5.327-12.684-5.592-50.113-6.013-32.009-.361-35.17-.249-35.75 1.263m140.398.43c-1.586 2.964-1.425 180.276.165 181.866 1.731 1.731 106.869 1.731 108.6 0 1.742-1.742 1.625-19.202-.139-20.666-.921-.764-13.948-1.193-41.75-1.373l-40.411-.261v-62l35.5-.5 35.5-.5v-21L870 925l-35.5-.5v-53l37.912-.262c25.953-.18 38.334-.613 39.25-1.373.943-.782 1.338-3.871 1.338-10.452 0-8.213-.234-9.468-1.934-10.378-1.26-.674-19.39-1.035-51.965-1.035-48.44 0-50.064.061-51.066 1.934m133.632-1.267c-.367.366-.667 41.718-.667 91.893 0 82.264.155 91.286 1.582 91.833 2.996 1.15 21.959.666 23.218-.593.892-.892 1.2-11.044 1.2-39.5V954l12.25.015c6.737.009 12.774.349 13.414.756 1.014.645 35.336 69.619 35.336 71.012 0 .29 1.158 2.047 2.574 3.903l2.574 3.374 12.164-.28c10.233-.236 12.213-.535 12.471-1.886.17-.884-8.262-18.842-18.737-39.907-10.475-21.065-19.046-38.811-19.046-39.435 0-.625 2.587-2.399 5.75-3.943 11.454-5.593 20.265-14.504 24.589-24.871 2.323-5.57 3.936-19.263 3.209-27.238-1.932-21.196-11.316-34.773-29.252-42.325-10.286-4.331-18.663-5.175-51.379-5.175-16.821 0-30.884.3-31.25.667M265 897.899V925l16.75-.011c16.92-.011 22.111-.797 29.096-4.409 7.345-3.799 11.67-14.212 10.949-26.365-.488-8.24-1.983-12.13-6.328-16.475-5.702-5.702-7.292-6.051-29.717-6.514l-20.75-.428v27.101m292.495-25.746c-.29.755-.407 14.192-.261 29.86l.266 28.487H577c19.029 0 19.637-.064 25.181-2.663 10.07-4.721 14.274-13.011 13.954-27.519-.299-13.598-4.495-20.752-15.036-25.641-6.451-2.992-7.008-3.07-24.838-3.478-14.823-.34-18.338-.161-18.766.954M694 898.094v27.093l18.75-.349c17.768-.331 19.044-.486 24.357-2.973 9.439-4.417 13.898-12.693 13.887-25.774-.007-9.207-1.565-13.97-5.927-18.132-6.097-5.816-11.464-6.959-32.682-6.959H694v27.094m273.503-25.964c-.294.768-.415 14.215-.269 29.883l.266 28.487 17 .302c20.761.369 27.08-.92 33.886-6.911 5.124-4.51 7.427-10.046 8.296-19.943 1.176-13.395-4.164-23.599-15.19-29.026-6.61-3.255-6.683-3.265-25.041-3.725-15.14-.38-18.507-.214-18.948.933m-702.087 75.787c-.76.76-.43 63.083.334 63.078.413-.002 8.175-.446 17.25-.985 17.889-1.063 27.086-2.501 31-4.846 9.677-5.797 14.584-20.694 11.574-35.131-3.526-16.909-12.908-21.718-43.408-22.249-8.983-.156-16.52-.096-16.75.133m428.999 0c-.228.229-.415 14.516-.415 31.75V1011l2.75-.03c7.659-.085 38.218-2.976 41.368-3.914 6.194-1.844 10.223-5.238 13.127-11.056 6.572-13.168 5.734-28.991-2.013-38.042-6.717-7.847-14.102-9.8-38.567-10.2-8.709-.142-16.022-.07-16.25.159m-160.449 105.624c-.818.985-.934 1.891-.322 2.503.609.609 106.969.868 291.408.708 289.697-.251 290.448-.257 290.448-2.252 0-1.995-.751-2.001-290.126-2.252-260.551-.226-290.257-.094-291.408 1.293m14.034 9.577c-10.959 4.347-14.253 19.339-6.123 27.864 6.258 6.561 14.968 7.619 22.261 2.704 3.235-2.18 3.362-2.509 3.362-8.726v-6.46l-7.321-.295-7.321-.295.321 2.795c.289 2.513.75 2.826 4.571 3.102 3.407.247 4.25.686 4.25 2.215 0 2.561-2.942 3.978-8.26 3.978-6.559 0-9.24-3.24-9.24-11.167 0-5.341.311-6.273 2.806-8.42 3.982-3.425 8.715-3.212 13.041.587 5.701 5.005 9.239 3.137 5.55-2.93-3.165-5.204-11.469-7.501-17.897-4.952m28-.459c-3.459 1.317-4 3.595-4 16.841 0 8.952.397 13.639 1.25 14.76 1.002 1.317 3.387 1.687 12.025 1.867 11.171.232 13.206-.379 12.557-3.771-.31-1.623-1.516-1.892-9.593-2.144l-9.239-.287v-7.844l8.239-.291c7.102-.25 8.288-.546 8.594-2.146.598-3.128-1.579-4.113-9.118-4.129l-7.215-.015-.313-3.25-.314-3.25h7.482c4.115 0 8.193-.273 9.063-.607 1.801-.691 2.128-3.938.498-4.945-1.415-.874-17.969-1.53-19.916-.789m56.657.176c-1.272.239-1.686 1.088-1.465 3 .272 2.357.828 2.723 4.808 3.165l4.5.5.5 13 .5 13h5l.279-13.25.279-13.25h3.389c1.864 0 4.101-.273 4.971-.607 1.886-.724 2.096-3.942.332-5.084-1.207-.781-19.477-1.156-23.093-.474m51.94 1.33c-1.165 1.663-1.262 27.552-.115 30.617.361.965 3.386 1.212 12.249 1l11.769-.282v-2.5c0-2.444-.2-2.511-9-3l-9-.5v-7l7.99-.5c6.665-.417 8.047-.798 8.333-2.298.617-3.24-1.455-4.444-6.769-3.933-7.538.724-10.054-.214-10.054-3.749v-2.942l8.739-.289c7.589-.251 8.785-.533 9.094-2.145.64-3.351-1.527-4.102-11.965-4.146-8.403-.036-10.272.24-11.271 1.667m30.403-1.436c-.825.314-1.831 1.066-2.235 1.671-1.029 1.541-.922 28.804.12 30.448.47.742 1.701 1.187 2.735.99 1.626-.31 1.948-1.563 2.38-9.26.578-10.285 1.347-10.09 4.876 1.233 3.432 11.013 6.709 11.063 10.756.166 3.714-10.002 3.793-10.019 4.347-.977.506 8.261.591 8.5 3.021 8.5h2.5l.275-15.701c.261-14.891.171-15.758-1.75-16.786-3.25-1.739-5.515.307-7.959 7.192a2934.024 2934.024 0 01-4.013 11.226l-1.779 4.931-3.387-10.427c-4.012-12.351-5.813-14.757-9.887-13.206m36.224.362c-2.251.854-2.272 1.03-2 16.636l.276 15.773h24v-2.5c0-2.444-.2-2.511-9-3l-9-.5v-7l8-.5c7.362-.46 8.026-.68 8.32-2.754.401-2.824-1.162-3.452-8.999-3.617-6.438-.136-8.778-1.692-7.512-4.993.508-1.324 2.137-1.636 8.537-1.636 5.486 0 8.258-.421 9.049-1.373 1.093-1.317.586-4.508-.752-4.737-3.596-.614-19.162-.464-20.919.201m145.026-.06c-2.198.884-2.25 1.263-2.25 16.468 0 13.487.218 15.648 1.636 16.192 2.97 1.139 4.858-1.117 4.958-5.928.142-6.823.698-7.655 4.582-6.861 2.61.533 4.196 1.959 7.383 6.638 3.026 4.445 4.744 6.041 6.755 6.277 4.482.527 4.366-2.235-.359-8.493-4.208-5.573-4.239-5.675-2.258-7.28 6.387-5.172 5.202-13.517-2.369-16.68-3.645-1.523-14.614-1.725-18.078-.333m45.648 1.253c-4.434 2.979-5.936 8.202-3.452 11.994 1.592 2.429 6.567 4.85 12.554 6.109 1.375.289 3.344 1.144 4.377 1.899 1.562 1.142 1.682 1.736.714 3.543-.951 1.778-2.055 2.171-6.096 2.171-4.339 0-5.207-.368-7.183-3.041-2.614-3.535-6.136-3.694-6.62-.3-.438 3.076 5.836 9.068 10.39 9.922 4.975.934 10.772-1.024 13.844-4.676 6.048-7.187 1.566-13.428-12.134-16.895-5.332-1.349-6.241-2.823-3.238-5.254 3.028-2.453 7.417-1.698 10.121 1.74 2.156 2.74 5.574 3.322 6.429 1.094.91-2.372-2.323-7.229-5.961-8.955-4.805-2.28-9.733-2.047-13.745.649m23.448-.773c-2.894 2.151-.574 4.881 4.666 5.489l4.309.5-.134 12c-.074 6.6.242 12.602.702 13.337.461.736 1.911 1.186 3.224 1 2.362-.334 2.39-.473 2.666-13.587l.279-13.25h2.846c1.565 0 4.14-.253 5.721-.563 2.656-.52 3.21-.047 7.272 6.212 3.913 6.028 4.379 7.36 4.224 12.08-.211 6.467 1.195 9.509 4.197 9.082 1.968-.28 2.211-.99 2.481-7.221.285-6.582.558-7.268 5.75-14.468 5.591-7.751 6.593-10.747 3.938-11.765-2.011-.772-3.707.761-8.005 7.236-1.974 2.974-3.976 5.407-4.45 5.407-.473 0-2.221-2.138-3.883-4.75s-3.456-5.379-3.986-6.149c-1.404-2.036-29.178-2.551-31.817-.59m97.968.439c-4.161 2.537-5.647 5.464-4.872 9.595.744 3.965 4.338 6.454 12.808 8.87 4.22 1.204 5.75 2.113 5.75 3.413 0 2.855-2.105 4.172-6.67 4.172-3.598 0-4.624-.479-6.518-3.041-2.66-3.598-6.137-3.693-6.635-.182-.522 3.679 5.44 8.893 11.147 9.749 5.683.852 9.714-.593 13.196-4.732 5.261-6.252 1.467-12.525-9.608-15.889-3.803-1.156-7.211-2.58-7.573-3.165-.832-1.346 3.275-4.74 5.737-4.74 1.02 0 3.446 1.398 5.392 3.106 3.919 3.441 6.532 3.281 6.532-.4 0-2.412-2.789-5.575-6.684-7.581-3.301-1.7-8.44-1.346-12.002.825m24.875-1.236c-5.597 1.069-3.162 6.286 2.933 6.286H1095v13.031c0 11.143.237 13.123 1.636 13.66.9.345 2.362.17 3.25-.389 1.32-.831 1.665-3.317 1.894-13.659l.28-12.643h3.036c6.35 0 9.324-4.129 4.339-6.025-2.516-.956-16.693-1.131-21.246-.261m-486.582 1.868c-.334.87-.607 7.755-.607 15.3 0 14.106.516 16.118 4.133 16.118 2.426 0 3.083-2.881 2.737-12.006-.325-8.567.285-10.474 2.186-6.83.67 1.285 3.665 6.075 6.655 10.645 4.807 7.348 5.746 8.274 8.113 8l2.676-.309v-32H625c-2.476 0-2.505.1-3 10.5l-.5 10.5-7-10.743c-5.976-9.17-7.387-10.744-9.643-10.75-1.493-.004-2.907.681-3.25 1.575m57.834-.288c-.273.712-.372 8.024-.219 16.25l.278 14.956 10.32.286 10.32.286-.32-2.786c-.31-2.696-.546-2.802-7.32-3.286l-7-.5.354-11.135c.419-13.195-.068-15.365-3.453-15.365-1.355 0-2.687.582-2.96 1.294m118.996-.193c-.911 1.475-1.293 25.734-.455 28.899.742 2.802 3.825 3.912 5.133 1.848.47-.741.861-5.285.87-10.098.008-4.812.352-8.719.765-8.681.413.038 3.663 4.558 7.223 10.045 5.658 8.719 6.792 9.939 9 9.681l2.527-.295v-32H801c-2.464 0-2.507.143-3 9.862-.578 11.409-.148 11.51-8.932-2.112-4.144-6.425-5.832-8.25-7.635-8.25-1.273 0-2.621.496-2.996 1.101m43.17.481c-.334.87-.607 7.755-.607 15.3 0 14.147.511 16.118 4.181 16.118 1.994 0 2.668-2.076 3.058-9.421l.261-4.92 6.5-.08 6.5-.079.5 7c.476 6.667.619 7 3 7h2.5v-32H845c-2.303 0-2.539.433-3 5.5l-.5 5.5-6.75.296-6.75.295v-4.464c0-5.955-.767-7.627-3.5-7.627-1.257 0-2.559.712-2.893 1.582m38.922 1.362c-3.008 5.816-10.606 27.414-10.104 28.721.282.734 1.452 1.335 2.6 1.335 1.512 0 2.636-1.239 4.078-4.5l1.991-4.5h10.977l1.929 4.5c1.562 3.643 2.412 4.5 4.464 4.5 4.017 0 3.286-3.872-3.872-20.5a182.644 182.644 0 01-2.61-6.5c-1.839-4.886-2.875-6-5.579-6-1.592 0-2.844.951-3.874 2.944m22.027-1.12c-.862 2.717.352 29.484 1.384 30.516.466.466 1.683.687 2.704.49 1.716-.33 1.856-1.565 1.856-16.344V1063.5l-2.664-.308c-1.924-.223-2.835.231-3.28 1.632m139.885-.53c-.273.712-.372 8.024-.219 16.25l.278 14.956 9.599.284c7.658.227 9.857-.025 10.872-1.25 2.364-2.847-.461-4.534-7.593-4.534H1029v-11.918c0-6.555-.273-12.63-.607-13.5-.729-1.899-5.25-2.118-5.952-.288m24.682.058c-1.421 1.712-1.434 25.699-.017 29.427.642 1.687 1.538 2.269 3.146 2.04 2.224-.316 2.248-.491 2.248-16.319 0-15.462-.07-16.01-2.088-16.298-1.148-.164-2.628.353-3.289 1.15m-146.738 6.252c-1.126 4.484.588 5.934 6.647 5.625 5.408-.276 7.968-1.474 7.968-3.729 0-2.307-3.023-3.802-8.504-4.204-5.206-.382-5.46-.286-6.111 2.308m-37.844 5.636c-.749 1.782-1.151 3.582-.893 4 .466.754 6.352 1.108 6.352.382 0-1.001-3.094-7.622-3.562-7.622-.294 0-1.148 1.458-1.897 3.24m-329.095 30.847c-.369.598-.254 1.505.257 2.016 1.236 1.236 580.378 1.216 581.614-.02.5-.5.606-1.398.237-1.996-.955-1.545-581.153-1.545-582.108 0m30.046 8.399c-4.891 2.15-6.992 5.185-6.992 10.1 0 3.61.573 4.948 3.272 7.645 2.977 2.975 3.809 3.266 9.25 3.234 6.545-.038 7.483 1.03 3.978 4.535-2.689 2.689-5.231 2.518-8.938-.601-3.188-2.683-5.649-2.64-6.706.116-.785 2.045 2.221 5.28 6.624 7.127 7.707 3.233 16.03-1.861 18.091-11.071 3.447-15.4-6.314-26.478-18.579-21.085m41.246 1.174c-2.816 2.003-3.738 3.36-3.738 5.5 0 2.304.438 2.84 2.32 2.84 1.275 0 3.298-1.125 4.493-2.5 3.072-3.533 9.187-3.21 9.187.485 0 2.233-1.789 3.725-5 4.169-1.908.264-2.5.938-2.5 2.846 0 2.127.522 2.55 3.496 2.832 4.305.408 6.004 1.729 6.004 4.668 0 2.643-1.487 4.082-5.173 5.007-2.128.534-3.31.049-5.893-2.419-5.136-4.909-9.28-3.751-6.925 1.934 1.633 3.941 8.747 7.405 13.227 6.44 4.629-.997 8.39-3.091 10.203-5.679 2.253-3.216 1.976-8.368-.587-10.931-1.751-1.751-1.936-2.488-1-3.987 1.86-2.978 1.359-7.324-1.102-9.566-5.625-5.123-11.341-5.674-17.012-1.639m44.629-.742c-12.286 7.491-5.211 23.339 9.211 20.633 4.29-.804 4.672 1.321.787 4.376-3.458 2.72-5.507 2.616-8.365-.427-2.856-3.04-5.636-3.222-6.523-.428-.825 2.599 1.718 5.561 6.503 7.575 7.105 2.992 14.729-1.243 17.555-9.751 2.98-8.975.496-17.91-6.056-21.776-4.454-2.628-9.019-2.698-13.112-.202m103.341.172c-4.766 2.515-6.753 6.293-4.497 8.55 1.948 1.947 5.448 1.01 6.304-1.689 1.143-3.598 9.545-3.844 10.897-.319.905 2.357-1.629 5.725-7.667 10.195-6.298 4.663-11.745 10.107-11.745 11.74 0 2.832 2.905 3.497 14.036 3.217 9.591-.242 11.414-.551 12.357-2.093 1.929-3.152-1.783-4.935-8.643-4.152-4.638.53-5.75.379-5.75-.78 0-.791 1.124-1.95 2.498-2.576 3.992-1.819 11.244-9.017 11.96-11.872 1.505-5.997-4.853-12.356-12.265-12.267-2.031.025-5.399.945-7.485 2.046m39.234-.872c-2.335.863-2.576 4.325-.36 5.175.87.334 4.47.607 8 .607 3.53 0 6.418.255 6.418.567 0 .311-1.072 1.999-2.382 3.75-5.321 7.111-9.175 17.774-7.533 20.842 1.13 2.111 4.201 2.432 5.662.591.546-.687 1.283-2.869 1.639-4.847.914-5.081 4.789-12.727 9.012-17.78 1.981-2.372 3.602-5.395 3.602-6.718 0-2.22-.403-2.414-5.25-2.519-2.888-.062-7.864-.175-11.058-.25-3.195-.075-6.683.187-7.75.582m47.05 1.032c-4.056 2.762-5.507 4.966-4.683 7.114.923 2.405 4.02 1.993 6.504-.864 1.379-1.586 3.228-2.5 5.058-2.5 5.677 0 6.533 5.569 1.025 6.671-6.167 1.233-6.398 5.999-.316 6.515 2.466.21 4.175 1.046 5.147 2.518 1.333 2.018 1.241 2.419-1.09 4.75-3.35 3.35-6.209 3.215-9.637-.454-3.049-3.264-6.434-3.918-7.389-1.428-1.158 3.017 2.413 7.118 8.191 9.406 4.095 1.622 9.623.218 14.153-3.594 3.753-3.157 4.186-8.664.999-12.715-1.936-2.462-1.957-2.735-.381-5.141 1.405-2.143 1.472-3.006.428-5.525-2.7-6.518-11.865-8.937-18.009-4.753m147.008 0c-1.812 1.237-3.924 3.21-4.692 4.384-1.216 1.855-1.187 2.344.219 3.75 2.016 2.016 3.043 2.034 4.684.081 3.531-4.203 4.164-4.56 7.562-4.268 7.545.649 6.564 6.173-2.165 12.184-7.646 5.266-11.841 9.941-11.443 12.754.325 2.293.653 2.374 10.835 2.657 12.53.348 15-.119 15-2.836 0-2.761-4.401-4.266-10.25-3.505-5.966.776-6.08-.44-.405-4.344 6.211-4.274 10.655-9.662 10.655-12.919 0-8.405-12.215-13.253-20-7.938m43.314-.3c-3.691 2.251-5.566 5.231-4.703 7.478.936 2.44 4.949 1.892 6.797-.928 2.382-3.635 9.592-3.271 9.592.485 0 2.233-1.789 3.725-5 4.169-1.908.264-2.5.938-2.5 2.846 0 2.037.556 2.562 3 2.834 3.265.363 6.5 2.726 6.5 4.748 0 1.533-4.733 5.418-6.6 5.418-.732 0-2.908-1.385-4.837-3.079-3.894-3.419-6.902-3.523-7.37-.254-.392 2.734 3.766 6.669 8.803 8.332 10.196 3.365 21.558-8.523 14.909-15.6-1.897-2.02-1.975-2.565-.817-5.765 1.624-4.491.264-7.839-4.318-10.633-4.142-2.525-9.366-2.545-13.456-.051m44.106-.064c-4.428 2.7-6.42 7.624-6.42 15.867 0 8.252 2.347 12.678 8.259 15.577 6.219 3.05 13.466-.035 16.362-6.966 1.631-3.903 1.788-12.351.328-17.609-2.057-7.408-11.752-11.002-18.529-6.869m-122.116.817c-1.118.988-5.308 5.753-9.311 10.588-6.659 8.044-7.182 8.999-6.156 11.25 1.035 2.272 1.653 2.459 8.142 2.459 6.726 0 7.021.1 7.021 2.378 0 3.035 2.319 4.973 4.952 4.137 1.397-.443 2.048-1.507 2.048-3.345 0-1.834.718-3.011 2.244-3.683 3.245-1.427 3.437-4.278.367-5.445-2.43-.924-2.547-1.347-2.823-10.253-.265-8.538-.456-9.313-2.369-9.586-1.144-.164-2.996.511-4.115 1.5m-386.747 5.52c-2.05 2.925-1.967 5.096.272 7.122 2.083 1.885 5.405 2.135 8.237.62 1.335-.715 1.934-2.098 1.934-4.465s-.599-3.75-1.934-4.465c-3.2-1.712-6.833-1.206-8.509 1.188m87.098-.394c-2.171 2.399-2.1 5.458.174 7.516 3.798 3.437 10.171.867 10.171-4.102 0-4.8-7-7.11-10.345-3.414m424.301-.275c-1.881 2.266-2.501 13.715-.947 17.469 1.809 4.367 5.658 5.066 8.662 1.573 1.901-2.21 2.326-3.845 2.314-8.902-.019-7.923-1.564-11.099-5.593-11.495-1.927-.19-3.572.313-4.436 1.355m-128.679 8.083c-3.433 4.349-3.354 5.363.421 5.363 2.771 0 3.564-1.557 3.122-6.128l-.32-3.319-3.223 4.084m-246.027 3.025c-1.588.641-1.617 3.571-.05 5.138 1.471 1.471 10.215 1.583 12.866.165 2.333-1.249 2.548-4.515.352-5.358-1.86-.714-11.36-.674-13.168.055m189.95.538c-3.325 3.325.174 5.8 8.199 5.8 4.564 0 5.724-.361 6.635-2.064 1.85-3.456-.385-4.936-7.456-4.936-3.472 0-6.704.526-7.378 1.2" fill="undefined" fill-rule="evenodd"/></svg>